# xmcd
#
# Track frame offsets: 
#        150
#        20381
#        36064
#        56273
#        74408
#        91380
#        109096
#        122038
#        136783
#        154349
#        175240
#
# Disc length: 2573 seconds
#
# Revision: 1
# Processed by: cddbd v1.5.2PL0 Copyright (c) Steve Scherf et al.
# Submitted via: ExactAudioCopy v0.90b4
#
DISCID=8c0a0b0b
DTITLE=Jack Sundrud - By My Own Hand
DYEAR=2005
DGENRE=
TTITLE0=Hard Country
TTITLE1=Father's Day
TTITLE2=Humility
TTITLE3=Taste For Life
TTITLE4=Soul Searchin'
TTITLE5=Noonday Sun
TTITLE6=Modern Day Blacksmith
TTITLE7=By My Own Hand
TTITLE8=Impossible Blue
TTITLE9=Heartland Train
TTITLE10=Living My Dream
EXTD=
EXTT0=
EXTT1=
EXTT2=
EXTT3=
EXTT4=
EXTT5=
EXTT6=
EXTT7=
EXTT8=
EXTT9=
EXTT10=
PLAYORDER=
